<?xml version="1.0" standalone="no"?><!DOCTYPE svg PUBLIC "-//W3C//DTD SVG 1.1//EN" "http://www.w3.org/Graphics/SVG/1.1/DTD/svg11.dtd"><svg t="1577066336271" class="icon" viewBox="0 0 1024 1024" version="1.1" xmlns="http://www.w3.org/2000/svg" p-id="3070" xmlns:xlink="http://www.w3.org/1999/xlink" width="48" height="48"><defs><style type="text/css"></style></defs><path d="M355.98 174.12c40.59-31.15 91.38-49.66 146.49-49.66 133.02 0 240.86 107.83 240.86 240.86S635.5 606.18 502.47 606.18 261.62 498.34 261.62 365.32c0-46 12.9-88.99 35.27-125.55" fill="#FFFFFF" p-id="3071"></path><path d="M502.47 620.35c-68.12 0-132.16-26.53-180.33-74.7-48.17-48.17-74.7-112.21-74.7-180.33 0-47.05 12.92-93.02 37.36-132.95 4.09-6.68 12.81-8.78 19.49-4.69 6.68 4.09 8.78 12.81 4.69 19.49-21.71 35.47-33.19 76.33-33.19 118.16 0 60.55 23.58 117.47 66.39 160.29C385 568.43 441.93 592 502.47 592s117.47-23.58 160.29-66.39c42.82-42.81 66.39-99.74 66.39-160.29s-23.58-117.47-66.39-160.29c-42.81-42.81-99.74-66.39-160.29-66.39-50.35 0-98.03 16.16-137.87 46.73-6.21 4.77-15.11 3.59-19.87-2.62-4.77-6.21-3.59-15.11 2.62-19.87 44.83-34.4 98.47-52.58 155.12-52.58 68.12 0 132.16 26.53 180.33 74.7 48.17 48.17 74.7 112.21 74.7 180.33 0 68.12-26.53 132.16-74.7 180.33-48.16 48.16-112.21 74.69-180.33 74.69z" p-id="3072"></path><path d="M500.44 181.71c102.1 0 184.86 82.77 184.86 184.86 0 35.31-9.9 68.31-27.07 96.37" fill="#FFFFFF" p-id="3073"></path><path d="M658.21 477.12c-2.52 0-5.08-0.67-7.38-2.09-6.68-4.09-8.78-12.81-4.69-19.49 16.35-26.71 24.99-57.48 24.99-88.97 0-94.12-76.57-170.69-170.69-170.69-7.83 0-14.17-6.34-14.17-14.17s6.34-14.17 14.17-14.17c109.75 0 199.04 89.29 199.04 199.04 0 36.72-10.08 72.6-29.16 103.76a14.185 14.185 0 0 1-12.11 6.78z" p-id="3074"></path><path d="M553.86 865H451.79l34.42-259.37h37.36z" p-id="3075"></path><path d="M589.76 895.68H411.11c-9.98 0-18.08-8.09-18.08-18.08 0-9.98 8.09-18.08 18.08-18.08h178.65c9.98 0 18.08 8.09 18.08 18.08 0 9.99-8.1 18.08-18.08 18.08z" p-id="3076"></path></svg>